<?xml version="1.0" encoding="UTF-8" standalone="no"?>
<!-- Created with Inkscape (http://www.inkscape.org/) -->

<svg
   xmlns:dc="http://purl.org/dc/elements/1.1/"
   xmlns:cc="http://creativecommons.org/ns#"
   xmlns:rdf="http://www.w3.org/1999/02/22-rdf-syntax-ns#"
   xmlns:svg="http://www.w3.org/2000/svg"
   xmlns="http://www.w3.org/2000/svg"
   xmlns:sodipodi="http://sodipodi.sourceforge.net/DTD/sodipodi-0.dtd"
   xmlns:inkscape="http://www.inkscape.org/namespaces/inkscape"
   width="24mm"
   height="24mm"
   viewBox="0 0 85.03937 85.03937"
   id="svg2"
   version="1.1"
   inkscape:version="0.91 r13725"
   sodipodi:docname="filelist_classification.svg">
  <defs
     id="defs4">
    <clipPath
       clipPathUnits="userSpaceOnUse"
       id="clipPath5417">
      <path
         style="fill:none;fill-rule:evenodd;stroke:#000000;stroke-width:1px;stroke-linecap:butt;stroke-linejoin:miter;stroke-opacity:1"
         d="M 77.781746,1052.1854 85,1052.2997 83.125,1037.3622 51.442018,967.421 l -14.053747,0 -17.500893,10.07627 -20.012378,26.48993 0.15625,18.9375 13.96875,6.8125 40.447222,17.6753 z"
         id="path5419"
         inkscape:connector-curvature="0" />
    </clipPath>
    <clipPath
       clipPathUnits="userSpaceOnUse"
       id="clipPath5421">
      <path
         style="fill:none;fill-rule:evenodd;stroke:#000000;stroke-width:1px;stroke-linecap:butt;stroke-linejoin:miter;stroke-opacity:1"
         d="m 77.699008,1052.0855 7.218254,0.1143 -1.875,-14.9375 -31.682982,-69.94117 -14.053747,0 -17.500893,10.07627 -20.0123781,26.4899 0.15625,18.9375 13.9687501,6.8125 40.447222,17.6753 z"
         id="path5423"
         inkscape:connector-curvature="0" />
    </clipPath>
    <clipPath
       clipPathUnits="userSpaceOnUse"
       id="clipPath5425">
      <path
         style="fill:none;fill-rule:evenodd;stroke:#000000;stroke-width:1px;stroke-linecap:butt;stroke-linejoin:miter;stroke-opacity:1"
         d="m 77.757251,1052.1719 7.218254,0.1143 -1.875,-14.9375 -31.682982,-69.94116 -14.053747,0 -17.500893,10.07627 -20.01237794,26.48989 0.15625,18.9375 13.96874994,6.8125 40.447222,17.6753 z"
         id="path5427"
         inkscape:connector-curvature="0" />
    </clipPath>
  </defs>
  <sodipodi:namedview
     id="base"
     pagecolor="#ffffff"
     bordercolor="#666666"
     borderopacity="1.0"
     inkscape:pageopacity="0.0"
     inkscape:pageshadow="2"
     inkscape:zoom="4"
     inkscape:cx="-1.654436"
     inkscape:cy="33.914942"
     inkscape:document-units="px"
     inkscape:current-layer="g5429"
     showgrid="false"
     inkscape:object-paths="false"
     inkscape:object-nodes="true"
     inkscape:snap-page="false"
     inkscape:snap-nodes="false"
     inkscape:snap-bbox="false"
     inkscape:window-width="1280"
     inkscape:window-height="1002"
     inkscape:window-x="1272"
     inkscape:window-y="112"
     inkscape:window-maximized="1"
     inkscape:bbox-nodes="true"
     inkscape:bbox-paths="true"
     inkscape:snap-bbox-edge-midpoints="true"
     inkscape:snap-bbox-midpoints="true"
     inkscape:snap-global="false"
     showguides="true"
     inkscape:guide-bbox="true"
     showborder="true">
    <sodipodi:guide
       position="82.024389,0.08838835"
       orientation="0,1"
       id="guide10585" />
    <sodipodi:guide
       position="85.073787,-0.48613592"
       orientation="1,0"
       id="guide10587" />
    <sodipodi:guide
       position="0,32.736835"
       orientation="1,0"
       id="guide5347" />
  </sodipodi:namedview>
  <metadata
     id="metadata7">
    <rdf:RDF>
      <cc:Work
         rdf:about="">
        <dc:format>image/svg+xml</dc:format>
        <dc:type
           rdf:resource="http://purl.org/dc/dcmitype/StillImage" />
        <dc:title></dc:title>
      </cc:Work>
    </rdf:RDF>
  </metadata>
  <g
     inkscape:label="Ebene 1"
     inkscape:groupmode="layer"
     id="layer1"
     transform="translate(0,-967.32283)">
    <g
       id="g5429">
      <path
         transform="translate(0.02449494,0.01345598)"
         clip-path="url(#clipPath5425)"
         inkscape:connector-curvature="0"
         id="path4432"
         d="m -5.9651342,1019.5186 0.05527,-3.8698 24.0219362,-23.82168 24.021936,-23.82159 1.491313,-0.0592 1.491314,-0.0592 -0.102689,0.5665 c -0.05648,0.31156 -1.149925,8.19103 -2.429887,17.50993 -1.279963,9.31889 -2.374267,17.22164 -2.431784,17.56154 -0.08782,0.5189 -0.242502,0.6593 -0.96557,0.8765 -1.697064,0.5102 -4.1622,0.8602 -7.451191,1.0586 -1.838952,0.1102 -3.734964,0.3343 -4.213357,0.4969 -0.478394,0.1624 -1.377592,0.3551 -1.998215,0.4279 -0.620625,0.073 -1.252,0.2563 -1.403055,0.4071 -0.151055,0.1512 -0.680891,0.2748 -1.177414,0.2748 -0.554913,0 -1.000102,0.1172 -1.155374,0.3045 -0.138934,0.1674 -0.464318,0.3042 -0.723076,0.3042 -0.258756,0 -0.526901,0.091 -0.595876,0.203 -0.06897,0.1113 -0.296119,0.2028 -0.50477,0.2028 -0.208647,0 -0.516329,0.1371 -0.683735,0.3045 -0.167403,0.1673 -0.380598,0.3042 -0.473761,0.3042 -0.09316,0 -0.624731,0.3065 -1.181259,0.6809 -0.556529,0.3745 -1.24015,0.7504 -1.519159,0.8351 -0.279009,0.085 -0.689911,0.3158 -0.913119,0.5133 -0.223207,0.1975 -0.611284,0.4214 -0.862391,0.4975 -0.251108,0.075 -0.45656,0.2237 -0.45656,0.3278 0,0.1047 -0.229071,0.1893 -0.509046,0.1893 -0.51711,0 -1.714974,0.8999 -1.732775,1.3017 -0.0053,0.1211 -0.501062,0.5312 -1.101554,0.9112 -0.6004913,0.3802 -1.3370325,0.9187 -1.6367581,1.1965 -0.2997267,0.278 -1.3335026,0.9116 -2.2972815,1.408 -0.9637785,0.4965 -2.0262617,1.1584 -2.3610716,1.4707 -0.7185237,0.6703 -2.2263848,1.4226 -2.8515663,1.4226 -0.2429958,0 -0.67397957,0.1827 -0.95774185,0.4059 -0.28376097,0.2232 -0.62771715,0.4058 -0.76434626,0.4058 -0.13662901,0 -0.55275139,0.1882 -0.92471659,0.418 -0.371964,0.2299 -0.9188602,0.4619 -1.2153246,0.5157 -0.82474,0.1496 -2.1407277,0.866 -2.8785997,1.5674 l -0.6640126,0.631 0.05527,-3.8699 z"
         style="fill:#ff0000;fill-opacity:1;stroke:#ff0000;stroke-width:1.14786363px;stroke-linecap:butt;stroke-linejoin:miter;stroke-opacity:1" />
      <path
         transform="translate(0.0827381,0.09987374)"
         clip-path="url(#clipPath5421)"
         inkscape:connector-curvature="0"
         id="path4439"
         d="m 81.822613,1049.0346 c -1.554204,-1.8114 -6.164685,-7.2153 -10.245525,-12.0088 -18.065051,-21.2198 -27.977656,-32.9703 -29.759242,-35.2767 l -1.035043,-1.3399 0.39597,-2.83572 c 1.004151,-7.19126 4.016494,-28.08657 4.19477,-29.09731 l 0.199206,-1.12939 1.357884,-0.11091 c 0.746836,-0.0611 1.415778,-0.0517 1.486538,0.0206 0.07075,0.0723 4.569411,10.4956 9.997003,23.16281 22.454664,52.40592 26.421588,61.72612 26.316104,61.82892 -0.04506,0.044 -1.353471,-1.4023 -2.907665,-3.2136 z"
         style="fill:#0000ff;fill-opacity:1;stroke:none;stroke-width:1px;stroke-linecap:butt;stroke-linejoin:miter;stroke-opacity:1" />
      <path
         clip-path="url(#clipPath5417)"
         inkscape:connector-curvature="0"
         id="path5399"
         d="m 83.048052,1053.162 c -3.724763,-1.8652 -4.627319,-2.4313 -5.587167,-3.5047 -0.242206,-0.2709 -1.056905,-0.8859 -1.810441,-1.3668 -1.572321,-1.0033 -2.638629,-1.9017 -4.804287,-4.0476 -0.845147,-0.8374 -2.021165,-1.7755 -2.613376,-2.0845 -4.587054,-2.3941 -6.628286,-3.5894 -7.513255,-4.3997 -0.375229,-0.3435 -0.769791,-0.6246 -0.876806,-0.6246 -0.107019,0 -0.737951,-0.3667 -1.402077,-0.8149 -0.664129,-0.4482 -1.801823,-1.0697 -2.528213,-1.3811 -0.726387,-0.3113 -1.598557,-0.8439 -1.938155,-1.1835 -0.339598,-0.3396 -0.965195,-0.7925 -1.390214,-1.0064 -0.707253,-0.3559 -3.547692,-2.311 -4.430514,-3.0495 -0.602054,-0.5036 -2.781025,-1.607 -3.173527,-1.607 -0.199633,0 -0.505346,-0.1716 -0.679364,-0.3812 -0.174015,-0.2097 -0.898122,-0.4679 -1.609126,-0.5737 -0.711004,-0.1059 -1.417209,-0.2947 -1.569347,-0.4197 -0.152138,-0.125 -1.385197,-0.2852 -2.740132,-0.356 -2.60815,-0.1364 -4.03185,-0.3485 -4.929637,-0.7345 -0.301415,-0.1296 -1.008924,-0.3114 -1.572246,-0.4041 -0.63302,-0.1042 -1.139109,-0.3832 -1.325024,-0.7306 -0.214155,-0.4002 -0.471642,-0.5162 -0.893873,-0.4029 -0.649397,0.1743 -3.708641,-0.3265 -4.16825,-0.6823 -0.414598,-0.321 -3.130241,-0.7913 -6.289293,-1.0892 -1.507072,-0.1421 -3.110049,-0.4295 -3.562171,-0.6385 -0.452122,-0.2091 -1.746834,-0.5299 -2.877138,-0.713 -1.130305,-0.183 -2.453432,-0.4513 -2.9402843,-0.5962 -0.4868524,-0.1449 -1.0246887,-0.1772 -1.1951918,-0.072 -0.170503,0.1054 -0.4146499,0.022 -0.5425494,-0.186 -0.1664772,-0.2703 -1.1114007,-0.4165 -3.3260255,-0.5146 l -3.0934827,-0.137 1.6440791,-0.9353 c 2.2232947,-1.2647 5.2903821,-3.4909 6.3339153,-4.5973 0.4703253,-0.4987 1.1180153,-0.9067 1.4393113,-0.9067 0.321297,0 0.584175,-0.1233 0.584175,-0.2741 0,-0.1507 0.118943,-0.274 0.264318,-0.274 0.145375,0 1.40926,-0.6593 2.808634,-1.4651 2.862727,-1.6485 4.001679,-2.1926 5.48996,-2.6223 0.565152,-0.1632 1.475009,-0.4338 2.021905,-0.6013 1.978021,-0.6058 5.770682,-1.2819 8.185086,-1.4593 6.050178,-0.4443 9.510069,-1.1541 9.989134,-2.0493 0.15114,-0.2824 0.354741,-1.1936 0.452443,-2.0249 l 0.177642,-1.5115 1.932276,2.3732 c 3.053394,3.7501 26.001452,30.8659 38.416275,45.3933 4.895432,5.7284 5.241058,6.1653 4.877837,6.1653 -0.122336,0 -1.578459,-0.6791 -3.235824,-1.509 z"
         style="fill:#00ff00;stroke:none;stroke-width:1px;stroke-linecap:butt;stroke-linejoin:miter;stroke-opacity:1" />
    </g>
  </g>
</svg>
